<svg width="486" height="232" viewBox="0 0 486 232" fill="none" xmlns="http://www.w3.org/2000/svg">
<g filter="url(#filter0_dd_2_236)">
<path d="M24.288 41.2894C24.288 35.9238 28.6376 31.5742 34.0031 31.5742H402.573C407.938 31.5742 412.288 35.9239 412.288 41.2894V156.657C412.288 162.023 407.938 166.372 402.573 166.372H34.0031C28.6376 166.372 24.288 162.023 24.288 156.657V41.2894Z" fill="white" shape-rendering="crispEdges"/>
<rect x="24.288" y="31.5742" width="388" height="4.85759" fill="#1D662D"/>
<path d="M124.779 102.193C124.779 99.726 124.558 97.3541 124.147 95.0771H91.3834V108.549H110.105C109.283 112.882 106.816 116.55 103.116 119.017V127.777H114.406C120.984 121.705 124.779 112.787 124.779 102.193Z" fill="#4285F4"/>
<path d="M91.3834 136.189C100.776 136.189 108.651 133.09 114.406 127.777L103.116 119.017C100.017 121.104 96.0639 122.369 91.3834 122.369C82.3387 122.369 74.6539 116.266 71.9025 108.043H60.3278V117.025C66.0519 128.378 77.7847 136.189 91.3834 136.189Z" fill="#34A853"/>
<path d="M71.9024 108.011C71.2067 105.924 70.7955 103.711 70.7955 101.402C70.7955 99.0933 71.2067 96.8795 71.9024 94.7923V85.8108H60.3277C57.9558 90.4913 56.5959 95.7726 56.5959 101.402C56.5959 107.031 57.9558 112.312 60.3277 116.993L69.3408 109.972L71.9024 108.011Z" fill="#FBBC05"/>
<path d="M91.3834 80.4665C96.5067 80.4665 101.061 82.2375 104.698 85.653L114.659 75.6911C108.619 70.0619 100.776 66.6147 91.3834 66.6147C77.7847 66.6147 66.0519 74.4261 60.3278 85.8111L71.9025 94.7926C74.6539 86.5701 82.3387 80.4665 91.3834 80.4665Z" fill="#EA4335"/>
<path d="M152.661 74.0952C151.624 74.0952 150.666 73.9074 149.785 73.5317C148.904 73.1561 148.133 72.6315 147.473 71.9579C146.812 71.2843 146.294 70.4941 145.918 69.5874C145.556 68.6806 145.374 67.6897 145.374 66.6145C145.374 65.5394 145.549 64.5484 145.899 63.6417C146.262 62.722 146.767 61.9318 147.414 61.2712C148.075 60.5976 148.846 60.0795 149.727 59.7168C150.607 59.3411 151.566 59.1533 152.602 59.1533C153.639 59.1533 154.565 59.3282 155.381 59.6779C156.21 60.0276 156.909 60.494 157.479 61.0769C158.049 61.6468 158.457 62.2751 158.703 62.9616L156.352 64.0886C156.08 63.3373 155.621 62.7285 154.973 62.2621C154.325 61.7958 153.535 61.5626 152.602 61.5626C151.696 61.5626 150.892 61.7764 150.193 62.2038C149.506 62.6313 148.969 63.2207 148.58 63.972C148.205 64.7233 148.017 65.6042 148.017 66.6145C148.017 67.6249 148.211 68.5122 148.6 69.2765C149.001 70.0278 149.552 70.6172 150.251 71.0447C150.951 71.4721 151.754 71.6859 152.661 71.6859C153.399 71.6859 154.079 71.5434 154.701 71.2584C155.323 70.9605 155.821 70.5459 156.197 70.0148C156.573 69.4708 156.76 68.8296 156.76 68.0912V66.9837L157.965 68.033H152.602V65.7985H159.403V67.2557C159.403 68.3697 159.215 69.3542 158.839 70.2092C158.464 71.0641 157.952 71.783 157.304 72.3659C156.67 72.9359 155.951 73.3698 155.148 73.6678C154.345 73.9527 153.516 74.0952 152.661 74.0952ZM166.449 74.0952C165.412 74.0952 164.467 73.8556 163.612 73.3763C162.77 72.897 162.096 72.2429 161.591 71.4138C161.099 70.5848 160.853 69.6392 160.853 68.577C160.853 67.5148 161.099 66.5692 161.591 65.7402C162.096 64.9111 162.77 64.257 163.612 63.7777C164.454 63.2984 165.399 63.0588 166.449 63.0588C167.485 63.0588 168.424 63.2984 169.266 63.7777C170.108 64.257 170.775 64.9111 171.267 65.7402C171.773 66.5562 172.025 67.5019 172.025 68.577C172.025 69.6392 171.773 70.5848 171.267 71.4138C170.762 72.2429 170.089 72.897 169.247 73.3763C168.405 73.8556 167.472 74.0952 166.449 74.0952ZM166.449 71.7636C167.019 71.7636 167.517 71.6276 167.945 71.3555C168.385 71.0835 168.729 70.7079 168.975 70.2286C169.234 69.7363 169.363 69.1858 169.363 68.577C169.363 67.9552 169.234 67.4112 168.975 66.9449C168.729 66.4656 168.385 66.0899 167.945 65.8179C167.517 65.5329 167.019 65.3904 166.449 65.3904C165.866 65.3904 165.354 65.5329 164.914 65.8179C164.473 66.0899 164.124 66.4656 163.864 66.9449C163.618 67.4112 163.495 67.9552 163.495 68.577C163.495 69.1858 163.618 69.7363 163.864 70.2286C164.124 70.7079 164.473 71.0835 164.914 71.3555C165.354 71.6276 165.866 71.7636 166.449 71.7636ZM179.124 74.0952C178.088 74.0952 177.142 73.8556 176.287 73.3763C175.445 72.897 174.772 72.2429 174.266 71.4138C173.774 70.5848 173.528 69.6392 173.528 68.577C173.528 67.5148 173.774 66.5692 174.266 65.7402C174.772 64.9111 175.445 64.257 176.287 63.7777C177.129 63.2984 178.075 63.0588 179.124 63.0588C180.16 63.0588 181.099 63.2984 181.941 63.7777C182.783 64.257 183.45 64.9111 183.943 65.7402C184.448 66.5562 184.701 67.5019 184.701 68.577C184.701 69.6392 184.448 70.5848 183.943 71.4138C183.438 72.2429 182.764 72.897 181.922 73.3763C181.08 73.8556 180.147 74.0952 179.124 74.0952ZM179.124 71.7636C179.694 71.7636 180.193 71.6276 180.62 71.3555C181.061 71.0835 181.404 70.7079 181.65 70.2286C181.909 69.7363 182.039 69.1858 182.039 68.577C182.039 67.9552 181.909 67.4112 181.65 66.9449C181.404 66.4656 181.061 66.0899 180.62 65.8179C180.193 65.5329 179.694 65.3904 179.124 65.3904C178.541 65.3904 178.029 65.5329 177.589 65.8179C177.149 66.0899 176.799 66.4656 176.54 66.9449C176.294 67.4112 176.171 67.9552 176.171 68.577C176.171 69.1858 176.294 69.7363 176.54 70.2286C176.799 70.7079 177.149 71.0835 177.589 71.3555C178.029 71.6276 178.541 71.7636 179.124 71.7636ZM191.76 78.1367C190.97 78.1367 190.238 78.0072 189.565 77.7481C188.891 77.4891 188.308 77.1264 187.816 76.66C187.337 76.2067 186.987 75.6691 186.767 75.0473L189.137 74.1535C189.293 74.6458 189.597 75.0408 190.051 75.3388C190.517 75.6497 191.087 75.8051 191.76 75.8051C192.279 75.8051 192.732 75.7079 193.121 75.5136C193.522 75.3193 193.833 75.0344 194.053 74.6587C194.273 74.296 194.384 73.8556 194.384 73.3374V70.9281L194.869 71.511C194.507 72.1457 194.021 72.625 193.412 72.9488C192.803 73.2727 192.11 73.4346 191.333 73.4346C190.348 73.4346 189.468 73.2079 188.69 72.7545C187.913 72.3012 187.304 71.6794 186.864 70.8892C186.424 70.099 186.203 69.2117 186.203 68.2273C186.203 67.2298 186.424 66.3425 186.864 65.5653C187.304 64.7881 187.907 64.1793 188.671 63.7388C189.435 63.2855 190.303 63.0588 191.275 63.0588C192.065 63.0588 192.758 63.2272 193.354 63.564C193.963 63.8878 194.468 64.3606 194.869 64.9824L194.52 65.6236V63.2919H196.929V73.3374C196.929 74.2571 196.702 75.0797 196.249 75.8051C195.808 76.5305 195.2 77.1005 194.422 77.515C193.658 77.9295 192.771 78.1367 191.76 78.1367ZM191.644 71.0835C192.188 71.0835 192.661 70.9669 193.062 70.7338C193.477 70.4877 193.801 70.1509 194.034 69.7234C194.267 69.2959 194.384 68.8037 194.384 68.2467C194.384 67.7026 194.26 67.2169 194.014 66.7894C193.781 66.349 193.457 66.0057 193.043 65.7596C192.641 65.5135 192.175 65.3904 191.644 65.3904C191.113 65.3904 190.633 65.5135 190.206 65.7596C189.779 66.0057 189.442 66.349 189.196 66.7894C188.962 67.2169 188.846 67.7026 188.846 68.2467C188.846 68.7907 188.962 69.2765 189.196 69.704C189.442 70.1314 189.772 70.4682 190.187 70.7143C190.614 70.9605 191.1 71.0835 191.644 71.0835ZM199.306 73.8621V59.1533H201.851V73.8621H199.306ZM209.215 74.0952C208.127 74.0952 207.174 73.8491 206.358 73.3569C205.542 72.8646 204.908 72.1975 204.454 71.3555C204.001 70.5136 203.774 69.5809 203.774 68.5576C203.774 67.4954 204.001 66.5562 204.454 65.7402C204.921 64.9111 205.549 64.257 206.339 63.7777C207.142 63.2984 208.036 63.0588 209.02 63.0588C209.849 63.0588 210.575 63.1948 211.197 63.4668C211.831 63.7388 212.369 64.1145 212.809 64.5938C213.25 65.0731 213.586 65.6236 213.82 66.2454C214.053 66.8542 214.169 67.5148 214.169 68.2273C214.169 68.4086 214.156 68.5964 214.131 68.7907C214.118 68.985 214.085 69.1534 214.033 69.2959H205.873V67.3529H212.596L211.391 68.2661C211.507 67.6703 211.475 67.1392 211.294 66.6728C211.125 66.2065 210.84 65.8373 210.439 65.5653C210.05 65.2933 209.577 65.1573 209.02 65.1573C208.489 65.1573 208.016 65.2933 207.602 65.5653C207.187 65.8244 206.87 66.213 206.65 66.7311C206.443 67.2363 206.365 67.8516 206.417 68.577C206.365 69.2247 206.449 69.8011 206.669 70.3063C206.902 70.7985 207.239 71.1807 207.68 71.4527C208.133 71.7247 208.651 71.8607 209.234 71.8607C209.817 71.8607 210.309 71.7377 210.711 71.4916C211.125 71.2454 211.449 70.9151 211.682 70.5006L213.742 71.511C213.535 72.0162 213.211 72.4631 212.77 72.8517C212.33 73.2403 211.805 73.5447 211.197 73.7649C210.601 73.9851 209.94 74.0952 209.215 74.0952ZM219.766 73.8621V59.3864H225.148C226.133 59.3864 227.001 59.5678 227.752 59.9305C228.516 60.2802 229.112 60.7984 229.54 61.4849C229.967 62.1585 230.181 62.9811 230.181 63.9526C230.181 64.95 229.941 65.7985 229.462 66.498C228.996 67.1974 228.361 67.7156 227.558 68.0524L230.88 73.8621H227.888L224.332 67.5083L226.042 68.5187H222.409V73.8621H219.766ZM222.409 66.1871H225.187C225.666 66.1871 226.081 66.0964 226.431 65.915C226.78 65.7207 227.052 65.4552 227.247 65.1184C227.441 64.7816 227.538 64.393 227.538 63.9526C227.538 63.4992 227.441 63.1106 227.247 62.7868C227.052 62.45 226.78 62.1909 226.431 62.0095C226.081 61.8152 225.666 61.7181 225.187 61.7181H222.409V66.1871ZM235.604 74.0952C234.866 74.0952 234.225 73.9722 233.681 73.726C233.137 73.4799 232.716 73.1302 232.418 72.6768C232.12 72.2105 231.971 71.6729 231.971 71.0641C231.971 70.4812 232.1 69.963 232.36 69.5097C232.619 69.0433 233.02 68.6547 233.564 68.3438C234.108 68.033 234.795 67.8127 235.624 67.6832L239.082 67.1197V69.0628L236.11 69.568C235.604 69.6586 235.229 69.8205 234.983 70.0537C234.737 70.2869 234.613 70.5913 234.613 70.9669C234.613 71.3296 234.749 71.6211 235.022 71.8413C235.306 72.0486 235.656 72.1522 236.071 72.1522C236.602 72.1522 237.068 72.0421 237.47 71.8219C237.884 71.5887 238.202 71.2713 238.422 70.8698C238.655 70.4682 238.772 70.0278 238.772 69.5485V66.8283C238.772 66.3749 238.59 65.9992 238.228 65.7013C237.878 65.3904 237.411 65.235 236.829 65.235C236.284 65.235 235.799 65.3839 235.371 65.6819C234.957 65.9669 234.652 66.349 234.458 66.8283L232.379 65.8179C232.586 65.2609 232.91 64.7816 233.35 64.38C233.804 63.9655 234.335 63.6417 234.944 63.4085C235.553 63.1754 236.213 63.0588 236.926 63.0588C237.794 63.0588 238.558 63.2207 239.218 63.5445C239.879 63.8554 240.391 64.2958 240.753 64.8658C241.129 65.4228 241.317 66.077 241.317 66.8283V73.8621H238.908V72.055L239.452 72.0162C239.18 72.4696 238.856 72.8517 238.48 73.1626C238.104 73.4605 237.677 73.6937 237.198 73.8621C236.718 74.0175 236.187 74.0952 235.604 74.0952ZM248.299 73.9786C247.107 73.9786 246.181 73.6548 245.52 73.0071C244.872 72.3465 244.548 71.4203 244.548 70.2286V65.5653H242.722V63.2919H242.916C243.434 63.2919 243.836 63.1559 244.121 62.8839C244.406 62.6119 244.548 62.2168 244.548 61.6987V60.8826H247.094V63.2919H249.523V65.5653H247.094V70.0926C247.094 70.4423 247.152 70.7402 247.269 70.9864C247.398 71.2325 247.593 71.4203 247.852 71.5498C248.124 71.6794 248.467 71.7442 248.881 71.7442C248.972 71.7442 249.076 71.7377 249.192 71.7247C249.322 71.7118 249.445 71.6988 249.561 71.6859V73.8621C249.38 73.888 249.173 73.9139 248.94 73.9398C248.707 73.9657 248.493 73.9786 248.299 73.9786ZM251.506 73.8621V63.2919H254.052V73.8621H251.506ZM251.506 62.1067V59.3864H254.052V62.1067H251.506ZM256.402 73.8621V63.2919H258.792V65.371L258.597 65.0018C258.843 64.3671 259.245 63.8878 259.802 63.564C260.372 63.2272 261.033 63.0588 261.784 63.0588C262.561 63.0588 263.248 63.2272 263.844 63.564C264.452 63.9008 264.925 64.3736 265.262 64.9824C265.599 65.5783 265.767 66.2713 265.767 67.0614V73.8621H263.222V67.6638C263.222 67.1974 263.131 66.7959 262.95 66.4591C262.768 66.1223 262.516 65.8632 262.192 65.6819C261.881 65.4876 261.512 65.3904 261.084 65.3904C260.67 65.3904 260.301 65.4876 259.977 65.6819C259.653 65.8632 259.4 66.1223 259.219 66.4591C259.038 66.7959 258.947 67.1974 258.947 67.6638V73.8621H256.402ZM273.049 78.1367C272.259 78.1367 271.527 78.0072 270.854 77.7481C270.18 77.4891 269.597 77.1264 269.105 76.66C268.625 76.2067 268.276 75.6691 268.056 75.0473L270.426 74.1535C270.581 74.6458 270.886 75.0408 271.339 75.3388C271.806 75.6497 272.376 75.8051 273.049 75.8051C273.567 75.8051 274.021 75.7079 274.409 75.5136C274.811 75.3193 275.122 75.0344 275.342 74.6587C275.562 74.296 275.672 73.8556 275.672 73.3374V70.9281L276.158 71.511C275.795 72.1457 275.31 72.625 274.701 72.9488C274.092 73.2727 273.399 73.4346 272.622 73.4346C271.637 73.4346 270.756 73.2079 269.979 72.7545C269.202 72.3012 268.593 71.6794 268.153 70.8892C267.712 70.099 267.492 69.2117 267.492 68.2273C267.492 67.2298 267.712 66.3425 268.153 65.5653C268.593 64.7881 269.195 64.1793 269.96 63.7388C270.724 63.2855 271.592 63.0588 272.563 63.0588C273.354 63.0588 274.047 63.2272 274.642 63.564C275.251 63.8878 275.756 64.3606 276.158 64.9824L275.808 65.6236V63.2919H278.218V73.3374C278.218 74.2571 277.991 75.0797 277.538 75.8051C277.097 76.5305 276.488 77.1005 275.711 77.515C274.947 77.9295 274.06 78.1367 273.049 78.1367ZM272.933 71.0835C273.477 71.0835 273.949 70.9669 274.351 70.7338C274.765 70.4877 275.089 70.1509 275.322 69.7234C275.556 69.2959 275.672 68.8037 275.672 68.2467C275.672 67.7026 275.549 67.2169 275.303 66.7894C275.07 66.349 274.746 66.0057 274.332 65.7596C273.93 65.5135 273.464 65.3904 272.933 65.3904C272.401 65.3904 271.922 65.5135 271.495 65.7596C271.067 66.0057 270.73 66.349 270.484 66.7894C270.251 67.2169 270.135 67.7026 270.135 68.2467C270.135 68.7907 270.251 69.2765 270.484 69.704C270.73 70.1314 271.061 70.4682 271.475 70.7143C271.903 70.9605 272.389 71.0835 272.933 71.0835Z" fill="#6A6A6A"/>
<path d="M152.9 113.928C151.754 113.928 150.646 113.715 149.578 113.287C148.509 112.84 147.596 112.218 146.838 111.422C146.08 110.606 145.585 109.634 145.351 108.507L149.344 107.167C149.636 108.099 150.102 108.779 150.743 109.207C151.385 109.634 152.104 109.848 152.9 109.848C153.58 109.848 154.173 109.712 154.678 109.44C155.183 109.148 155.572 108.75 155.844 108.245C156.135 107.72 156.281 107.118 156.281 106.438C156.281 105.758 156.135 105.165 155.844 104.66C155.572 104.155 155.183 103.766 154.678 103.494C154.173 103.203 153.58 103.057 152.9 103.057C152.201 103.057 151.579 103.213 151.035 103.523C150.491 103.815 150.093 104.271 149.84 104.893L146.138 104.019L147.887 91.8652H160.012V95.6541H149.723L151.414 93.6139L150.219 102.649L148.995 101.571C149.48 100.774 150.093 100.191 150.831 99.8219C151.589 99.4527 152.56 99.2682 153.745 99.2682C155.203 99.2682 156.456 99.579 157.505 100.201C158.554 100.803 159.361 101.639 159.924 102.707C160.507 103.776 160.799 105.02 160.799 106.438C160.799 107.856 160.449 109.139 159.749 110.285C159.069 111.412 158.137 112.306 156.951 112.967C155.766 113.608 154.416 113.928 152.9 113.928ZM165.965 113.579V109.207H170.337V113.579H165.965ZM184.303 113.928C182.574 113.928 181.049 113.462 179.728 112.529C178.426 111.597 177.406 110.285 176.667 108.595C175.929 106.904 175.56 104.942 175.56 102.707C175.56 100.453 175.919 98.4909 176.638 96.8199C177.376 95.1489 178.397 93.8471 179.698 92.9144C181.02 91.9818 182.545 91.5154 184.274 91.5154C186.042 91.5154 187.577 91.9818 188.879 92.9144C190.2 93.8471 191.221 95.1586 191.94 96.8491C192.678 98.5201 193.047 100.473 193.047 102.707C193.047 104.942 192.678 106.904 191.94 108.595C191.221 110.266 190.2 111.577 188.879 112.529C187.577 113.462 186.052 113.928 184.303 113.928ZM184.333 109.848C185.226 109.848 185.984 109.566 186.606 109.003C187.228 108.439 187.704 107.623 188.034 106.555C188.364 105.486 188.529 104.203 188.529 102.707C188.529 101.211 188.364 99.9385 188.034 98.8893C187.704 97.8206 187.218 97.0045 186.577 96.441C185.955 95.8776 185.187 95.5958 184.274 95.5958C183.38 95.5958 182.623 95.8776 182.001 96.441C181.379 97.0045 180.903 97.8206 180.573 98.8893C180.242 99.9385 180.077 101.211 180.077 102.707C180.077 104.184 180.242 105.457 180.573 106.525C180.903 107.594 181.379 108.42 182.001 109.003C182.642 109.566 183.419 109.848 184.333 109.848Z" fill="#FEA500"/>
<path d="M230.251 87.766C230.697 86.8673 231.979 86.8673 232.426 87.766L236.072 95.1059C236.249 95.4618 236.589 95.7086 236.982 95.7668L245.09 96.967C246.082 97.114 246.479 98.3333 245.762 99.0357L239.908 104.772C239.624 105.05 239.495 105.45 239.561 105.842L240.925 113.923C241.092 114.913 240.054 115.666 239.165 115.202L231.9 111.407C231.548 111.223 231.128 111.223 230.776 111.407L223.511 115.202C222.622 115.666 221.585 114.913 221.752 113.923L223.115 105.842C223.182 105.45 223.052 105.05 222.768 104.772L216.914 99.0357C216.198 98.3333 216.594 97.114 217.586 96.967L225.694 95.7668C226.087 95.7086 226.427 95.4618 226.604 95.1059L230.251 87.766Z" fill="#FEA500"/>
<path d="M264.254 87.766C264.7 86.8673 265.982 86.8673 266.429 87.766L270.076 95.1059C270.252 95.4618 270.592 95.7086 270.985 95.7668L279.093 96.967C280.086 97.114 280.482 98.3333 279.765 99.0357L273.911 104.772C273.628 105.05 273.498 105.45 273.564 105.842L274.928 113.923C275.095 114.913 274.058 115.666 273.168 115.202L265.904 111.407C265.551 111.223 265.131 111.223 264.779 111.407L257.514 115.202C256.625 115.666 255.588 114.913 255.755 113.923L257.119 105.842C257.185 105.45 257.055 105.05 256.771 104.772L250.918 99.0357C250.201 98.3333 250.597 97.114 251.59 96.967L259.697 95.7668C260.09 95.7086 260.43 95.4618 260.607 95.1059L264.254 87.766Z" fill="#FEA500"/>
<path d="M298.257 87.766C298.703 86.8673 299.985 86.8673 300.432 87.766L304.079 95.1059C304.256 95.4618 304.595 95.7086 304.988 95.7668L313.096 96.967C314.089 97.114 314.485 98.3333 313.768 99.0357L307.914 104.772C307.631 105.05 307.501 105.45 307.567 105.842L308.931 113.923C309.098 114.913 308.061 115.666 307.171 115.202L299.907 111.407C299.554 111.223 299.134 111.223 298.782 111.407L291.518 115.202C290.628 115.666 289.591 114.913 289.758 113.923L291.122 105.842C291.188 105.45 291.058 105.05 290.774 104.772L284.921 99.0357C284.204 98.3333 284.6 97.114 285.593 96.967L293.7 95.7668C294.093 95.7086 294.433 95.4618 294.61 95.1059L298.257 87.766Z" fill="#FEA500"/>
<path d="M332.26 87.766C332.706 86.8673 333.989 86.8673 334.435 87.766L338.082 95.1059C338.259 95.4618 338.598 95.7086 338.992 95.7668L347.099 96.967C348.092 97.114 348.488 98.3333 347.771 99.0357L341.918 104.772C341.634 105.05 341.504 105.45 341.57 105.842L342.934 113.923C343.101 114.913 342.064 115.666 341.174 115.202L333.91 111.407C333.558 111.223 333.138 111.223 332.785 111.407L325.521 115.202C324.631 115.666 323.594 114.913 323.761 113.923L325.125 105.842C325.191 105.45 325.061 105.05 324.777 104.772L318.924 99.0357C318.207 98.3333 318.603 97.114 319.596 96.967L327.703 95.7668C328.097 95.7086 328.436 95.4618 328.613 95.1059L332.26 87.766Z" fill="#FEA500"/>
<path d="M366.263 87.766C366.71 86.8673 367.992 86.8673 368.438 87.766L372.085 95.1059C372.262 95.4618 372.602 95.7086 372.995 95.7668L381.102 96.967C382.095 97.114 382.491 98.3333 381.774 99.0357L375.921 104.772C375.637 105.05 375.507 105.45 375.573 105.842L376.937 113.923C377.104 114.913 376.067 115.666 375.177 115.202L367.913 111.407C367.561 111.223 367.141 111.223 366.788 111.407L359.524 115.202C358.634 115.666 357.597 114.913 357.764 113.923L359.128 105.842C359.194 105.45 359.064 105.05 358.78 104.772L352.927 99.0357C352.21 98.3333 352.606 97.114 353.599 96.967L361.706 95.7668C362.1 95.7086 362.439 95.4618 362.616 95.1059L366.263 87.766Z" fill="#FEA500"/>
<path d="M149.243 144.471C148.553 144.471 147.927 144.339 147.363 144.077C146.8 143.815 146.324 143.465 145.935 143.028C145.547 142.581 145.27 142.09 145.104 141.556L146.154 141.163C146.406 141.901 146.8 142.464 147.334 142.853C147.868 143.232 148.505 143.421 149.243 143.421C149.709 143.421 150.118 143.348 150.467 143.203C150.827 143.047 151.104 142.834 151.298 142.561C151.492 142.289 151.589 141.974 151.589 141.614C151.589 141.08 151.444 140.667 151.152 140.376C150.861 140.084 150.443 139.861 149.899 139.705L147.946 139.122C147.179 138.899 146.586 138.525 146.168 138C145.76 137.476 145.556 136.878 145.556 136.208C145.556 135.635 145.697 135.129 145.979 134.692C146.261 134.245 146.644 133.896 147.13 133.643C147.626 133.39 148.184 133.264 148.806 133.264C149.457 133.264 150.04 133.386 150.555 133.628C151.079 133.862 151.521 134.172 151.881 134.561C152.24 134.95 152.498 135.382 152.653 135.858L151.633 136.266C151.4 135.625 151.036 135.139 150.54 134.809C150.054 134.478 149.481 134.313 148.821 134.313C148.403 134.313 148.034 134.386 147.713 134.532C147.402 134.678 147.159 134.887 146.984 135.159C146.81 135.431 146.722 135.751 146.722 136.12C146.722 136.567 146.863 136.97 147.145 137.33C147.426 137.68 147.859 137.942 148.442 138.117L150.161 138.627C151.016 138.879 151.662 139.244 152.099 139.72C152.537 140.196 152.755 140.793 152.755 141.512C152.755 142.095 152.605 142.61 152.303 143.057C152.012 143.494 151.599 143.839 151.065 144.092C150.54 144.344 149.933 144.471 149.243 144.471ZM158.402 144.471C157.673 144.471 157.013 144.296 156.42 143.946C155.837 143.586 155.376 143.096 155.036 142.474C154.696 141.852 154.526 141.148 154.526 140.361C154.526 139.574 154.691 138.879 155.021 138.277C155.351 137.665 155.798 137.184 156.362 136.834C156.935 136.485 157.576 136.31 158.285 136.31C158.849 136.31 159.349 136.417 159.786 136.63C160.233 136.834 160.612 137.116 160.923 137.476C161.234 137.825 161.472 138.224 161.637 138.671C161.802 139.108 161.885 139.56 161.885 140.026C161.885 140.123 161.88 140.235 161.87 140.361C161.861 140.478 161.846 140.599 161.827 140.725H155.225V139.705H161.2L160.675 140.142C160.763 139.608 160.7 139.132 160.486 138.714C160.282 138.287 159.985 137.952 159.597 137.709C159.208 137.456 158.771 137.33 158.285 137.33C157.8 137.33 157.348 137.456 156.93 137.709C156.522 137.961 156.201 138.316 155.968 138.773C155.735 139.219 155.643 139.754 155.691 140.376C155.643 140.997 155.74 141.541 155.983 142.008C156.235 142.464 156.575 142.819 157.003 143.072C157.44 143.324 157.906 143.45 158.402 143.45C158.975 143.45 159.456 143.314 159.845 143.042C160.233 142.77 160.549 142.43 160.792 142.022L161.725 142.518C161.569 142.868 161.331 143.193 161.01 143.494C160.69 143.786 160.306 144.024 159.859 144.208C159.422 144.383 158.936 144.471 158.402 144.471ZM167.368 144.471C166.639 144.471 165.978 144.296 165.386 143.946C164.803 143.586 164.341 143.096 164.001 142.474C163.661 141.852 163.491 141.148 163.491 140.361C163.491 139.574 163.656 138.879 163.987 138.277C164.317 137.665 164.764 137.184 165.327 136.834C165.901 136.485 166.542 136.31 167.251 136.31C167.814 136.31 168.315 136.417 168.752 136.63C169.199 136.834 169.578 137.116 169.889 137.476C170.2 137.825 170.438 138.224 170.603 138.671C170.768 139.108 170.85 139.56 170.85 140.026C170.85 140.123 170.846 140.235 170.836 140.361C170.826 140.478 170.812 140.599 170.792 140.725H164.191V139.705H170.166L169.641 140.142C169.728 139.608 169.665 139.132 169.451 138.714C169.247 138.287 168.951 137.952 168.563 137.709C168.174 137.456 167.737 137.33 167.251 137.33C166.765 137.33 166.313 137.456 165.896 137.709C165.488 137.961 165.167 138.316 164.934 138.773C164.701 139.219 164.608 139.754 164.657 140.376C164.608 140.997 164.706 141.541 164.949 142.008C165.201 142.464 165.541 142.819 165.969 143.072C166.406 143.324 166.872 143.45 167.368 143.45C167.941 143.45 168.422 143.314 168.81 143.042C169.199 142.77 169.515 142.43 169.758 142.022L170.69 142.518C170.535 142.868 170.297 143.193 169.976 143.494C169.656 143.786 169.272 144.024 168.825 144.208C168.388 144.383 167.902 144.471 167.368 144.471ZM177.513 144.471C177.017 144.471 176.575 144.378 176.186 144.194C175.798 143.999 175.492 143.737 175.268 143.407C175.045 143.076 174.933 142.698 174.933 142.27C174.933 141.862 175.021 141.493 175.195 141.163C175.37 140.822 175.642 140.536 176.012 140.303C176.381 140.07 176.852 139.904 177.425 139.807L180.485 139.297V140.288L177.687 140.754C177.124 140.852 176.716 141.031 176.463 141.294C176.22 141.556 176.099 141.867 176.099 142.226C176.099 142.576 176.235 142.872 176.507 143.115C176.789 143.358 177.148 143.48 177.585 143.48C178.12 143.48 178.586 143.368 178.984 143.144C179.383 142.911 179.694 142.6 179.917 142.212C180.14 141.823 180.252 141.391 180.252 140.915V138.933C180.252 138.467 180.082 138.088 179.742 137.796C179.402 137.505 178.96 137.359 178.416 137.359C177.94 137.359 177.522 137.48 177.163 137.723C176.803 137.956 176.536 138.263 176.361 138.641L175.37 138.102C175.516 137.772 175.744 137.471 176.055 137.199C176.376 136.927 176.74 136.713 177.148 136.558C177.556 136.392 177.979 136.31 178.416 136.31C178.989 136.31 179.494 136.422 179.932 136.645C180.378 136.868 180.723 137.179 180.966 137.578C181.219 137.966 181.345 138.418 181.345 138.933V144.296H180.252V142.736L180.412 142.897C180.276 143.188 180.063 143.455 179.771 143.698C179.49 143.931 179.154 144.121 178.766 144.267C178.387 144.403 177.969 144.471 177.513 144.471ZM183.593 144.296V133.264H184.686V144.296H183.593ZM186.923 144.296V133.264H188.016V144.296H186.923ZM196.387 144.471C195.649 144.471 194.979 144.296 194.376 143.946C193.774 143.586 193.293 143.101 192.934 142.489C192.584 141.867 192.409 141.163 192.409 140.376C192.409 139.598 192.584 138.904 192.934 138.292C193.283 137.68 193.755 137.199 194.347 136.849C194.95 136.49 195.63 136.31 196.387 136.31C197.145 136.31 197.82 136.485 198.413 136.834C199.015 137.184 199.487 137.665 199.827 138.277C200.176 138.889 200.351 139.589 200.351 140.376C200.351 141.172 200.171 141.881 199.812 142.503C199.453 143.115 198.972 143.596 198.369 143.946C197.777 144.296 197.116 144.471 196.387 144.471ZM196.387 143.378C196.912 143.378 197.383 143.246 197.801 142.984C198.228 142.722 198.564 142.362 198.807 141.906C199.059 141.449 199.185 140.939 199.185 140.376C199.185 139.812 199.059 139.307 198.807 138.86C198.564 138.413 198.228 138.059 197.801 137.796C197.383 137.534 196.912 137.403 196.387 137.403C195.863 137.403 195.387 137.534 194.959 137.796C194.542 138.059 194.206 138.413 193.954 138.86C193.701 139.307 193.575 139.812 193.575 140.376C193.575 140.939 193.701 141.449 193.954 141.906C194.206 142.362 194.542 142.722 194.959 142.984C195.387 143.246 195.863 143.378 196.387 143.378ZM205.048 144.471C204.504 144.471 204.008 144.344 203.561 144.092C203.114 143.829 202.76 143.47 202.497 143.013C202.245 142.547 202.119 142.013 202.119 141.41V136.485H203.211V141.279C203.211 141.697 203.294 142.066 203.459 142.387C203.634 142.698 203.872 142.94 204.173 143.115C204.484 143.29 204.839 143.378 205.237 143.378C205.635 143.378 205.99 143.29 206.301 143.115C206.612 142.931 206.855 142.673 207.03 142.343C207.204 142.003 207.292 141.6 207.292 141.133V136.485H208.385V144.296H207.292V142.78L207.54 142.838C207.355 143.344 207.039 143.742 206.592 144.033C206.145 144.325 205.631 144.471 205.048 144.471ZM210.633 144.296V136.485H211.725V137.767L211.58 137.578C211.764 137.208 212.041 136.917 212.41 136.703C212.789 136.49 213.246 136.383 213.78 136.383H214.276V137.476H213.591C213.027 137.476 212.576 137.65 212.236 138C211.896 138.35 211.725 138.845 211.725 139.487V144.296H210.633ZM218.033 144.296V136.485H219.126V137.767L218.98 137.578C219.165 137.208 219.441 136.917 219.811 136.703C220.19 136.49 220.646 136.383 221.18 136.383H221.676V137.476H220.991C220.428 137.476 219.976 137.65 219.636 138C219.296 138.35 219.126 138.845 219.126 139.487V144.296H218.033ZM226.513 144.471C225.784 144.471 225.123 144.296 224.531 143.946C223.948 143.586 223.486 143.096 223.146 142.474C222.806 141.852 222.636 141.148 222.636 140.361C222.636 139.574 222.801 138.879 223.132 138.277C223.462 137.665 223.909 137.184 224.472 136.834C225.046 136.485 225.687 136.31 226.396 136.31C226.959 136.31 227.46 136.417 227.897 136.63C228.344 136.834 228.723 137.116 229.034 137.476C229.345 137.825 229.583 138.224 229.748 138.671C229.913 139.108 229.995 139.56 229.995 140.026C229.995 140.123 229.991 140.235 229.981 140.361C229.971 140.478 229.957 140.599 229.937 140.725H223.336V139.705H229.311L228.786 140.142C228.873 139.608 228.81 139.132 228.596 138.714C228.392 138.287 228.096 137.952 227.707 137.709C227.319 137.456 226.882 137.33 226.396 137.33C225.91 137.33 225.458 137.456 225.041 137.709C224.633 137.961 224.312 138.316 224.079 138.773C223.846 139.219 223.753 139.754 223.802 140.376C223.753 140.997 223.851 141.541 224.093 142.008C224.346 142.464 224.686 142.819 225.114 143.072C225.551 143.324 226.017 143.45 226.513 143.45C227.086 143.45 227.567 143.314 227.955 143.042C228.344 142.77 228.66 142.43 228.902 142.022L229.835 142.518C229.68 142.868 229.442 143.193 229.121 143.494C228.8 143.786 228.417 144.024 227.97 144.208C227.533 144.383 227.047 144.471 226.513 144.471ZM233.864 144.296L230.818 136.485H232.042L234.607 143.334H234.214L236.793 136.485H238.032L234.957 144.296H233.864ZM239.308 144.296V136.485H240.401V144.296H239.308ZM239.308 135.042V133.439H240.401V135.042H239.308ZM246.194 144.471C245.466 144.471 244.805 144.296 244.212 143.946C243.63 143.586 243.168 143.096 242.828 142.474C242.488 141.852 242.318 141.148 242.318 140.361C242.318 139.574 242.483 138.879 242.813 138.277C243.144 137.665 243.591 137.184 244.154 136.834C244.727 136.485 245.369 136.31 246.078 136.31C246.641 136.31 247.142 136.417 247.579 136.63C248.026 136.834 248.405 137.116 248.715 137.476C249.026 137.825 249.264 138.224 249.429 138.671C249.595 139.108 249.677 139.56 249.677 140.026C249.677 140.123 249.672 140.235 249.663 140.361C249.653 140.478 249.638 140.599 249.619 140.725H243.017V139.705H248.992L248.468 140.142C248.555 139.608 248.492 139.132 248.278 138.714C248.074 138.287 247.778 137.952 247.389 137.709C247.001 137.456 246.563 137.33 246.078 137.33C245.592 137.33 245.14 137.456 244.722 137.709C244.314 137.961 243.994 138.316 243.761 138.773C243.527 139.219 243.435 139.754 243.484 140.376C243.435 140.997 243.532 141.541 243.775 142.008C244.028 142.464 244.368 142.819 244.795 143.072C245.233 143.324 245.699 143.45 246.194 143.45C246.768 143.45 247.248 143.314 247.637 143.042C248.026 142.77 248.341 142.43 248.584 142.022L249.517 142.518C249.361 142.868 249.123 143.193 248.803 143.494C248.482 143.786 248.098 144.024 247.652 144.208C247.214 144.383 246.729 144.471 246.194 144.471ZM253.324 144.296L250.642 136.485H251.881L254.096 143.319H253.659L255.743 136.485H256.836L258.92 143.319H258.483L260.712 136.485H261.936L259.255 144.296H258.162L256.136 137.607H256.442L254.417 144.296H253.324ZM265.927 144.471C265.179 144.471 264.524 144.281 263.96 143.902C263.397 143.523 262.989 143.008 262.736 142.357L263.654 141.92C263.878 142.396 264.188 142.775 264.587 143.057C264.995 143.339 265.442 143.48 265.927 143.48C266.394 143.48 266.787 143.368 267.108 143.144C267.428 142.911 267.589 142.61 267.589 142.241C267.589 141.969 267.511 141.755 267.356 141.6C267.2 141.435 267.02 141.308 266.816 141.221C266.612 141.133 266.433 141.07 266.277 141.031L265.155 140.711C264.436 140.507 263.916 140.22 263.596 139.851C263.275 139.482 263.115 139.054 263.115 138.569C263.115 138.112 263.231 137.714 263.465 137.374C263.698 137.034 264.014 136.771 264.412 136.587C264.81 136.402 265.252 136.31 265.738 136.31C266.399 136.31 266.996 136.485 267.53 136.834C268.074 137.174 268.458 137.65 268.682 138.263L267.749 138.7C267.555 138.263 267.273 137.922 266.904 137.68C266.544 137.427 266.141 137.301 265.694 137.301C265.257 137.301 264.907 137.412 264.645 137.636C264.383 137.859 264.252 138.141 264.252 138.481C264.252 138.743 264.32 138.952 264.456 139.108C264.592 139.263 264.747 139.38 264.922 139.457C265.107 139.535 265.267 139.594 265.403 139.632L266.7 140.011C267.331 140.196 267.822 140.482 268.172 140.871C268.531 141.26 268.711 141.716 268.711 142.241C268.711 142.668 268.589 143.052 268.347 143.392C268.113 143.732 267.788 143.999 267.37 144.194C266.952 144.378 266.471 144.471 265.927 144.471Z" fill="#868686"/>
</g>
<defs>
<filter id="filter0_dd_2_236" x="1.28746e-05" y="-0.000116348" width="485.152" height="231.95" filterUnits="userSpaceOnUse" color-interpolation-filters="sRGB">
<feFlood flood-opacity="0" result="BackgroundImageFix"/>
<feColorMatrix in="SourceAlpha" type="matrix" values="0 0 0 0 0 0 0 0 0 0 0 0 0 0 0 0 0 0 127 0" result="hardAlpha"/>
<feOffset dx="24.288" dy="17.0016"/>
<feGaussianBlur stdDeviation="24.288"/>
<feComposite in2="hardAlpha" operator="out"/>
<feColorMatrix type="matrix" values="0 0 0 0 0 0 0 0 0 0 0 0 0 0 0 0 0 0 0.08 0"/>
<feBlend mode="normal" in2="BackgroundImageFix" result="effect1_dropShadow_2_236"/>
<feColorMatrix in="SourceAlpha" type="matrix" values="0 0 0 0 0 0 0 0 0 0 0 0 0 0 0 0 0 0 127 0" result="hardAlpha"/>
<feOffset dx="-4.85759" dy="-2.4288"/>
<feGaussianBlur stdDeviation="9.71518"/>
<feComposite in2="hardAlpha" operator="out"/>
<feColorMatrix type="matrix" values="0 0 0 0 0 0 0 0 0 0 0 0 0 0 0 0 0 0 0.08 0"/>
<feBlend mode="normal" in2="effect1_dropShadow_2_236" result="effect2_dropShadow_2_236"/>
<feBlend mode="normal" in="SourceGraphic" in2="effect2_dropShadow_2_236" result="shape"/>
</filter>
</defs>
</svg>
