<svg width="388" height="135" viewBox="0 0 388 135" fill="none" xmlns="http://www.w3.org/2000/svg">
<path d="M0 0L388 3.33786e-06V125.083C388 130.449 383.65 134.798 378.285 134.798H9.7151C4.3496 134.798 0 130.449 0 125.083V0Z" fill="white"/>
<path d="M388 0H0V4.85759H388V0Z" fill="#1D662D"/>
<path d="M100.491 70.6188C100.491 68.1518 100.27 65.7799 99.8591 63.5029H67.0955V76.9748H85.8171C84.9951 81.3078 82.5281 84.9758 78.8281 87.4428V96.2028H90.1181C96.6961 90.1308 100.491 81.2128 100.491 70.6188Z" fill="#4285F4"/>
<path d="M67.0954 104.615C76.488 104.615 84.363 101.516 90.118 96.2028L78.828 87.4428C75.729 89.5298 71.7759 90.7948 67.0954 90.7948C58.0507 90.7948 50.3659 84.6918 47.6145 76.4688H36.0398V85.4508C41.7639 96.8038 53.4967 104.615 67.0954 104.615Z" fill="#34A853"/>
<path d="M47.6144 76.4368C46.9187 74.3498 46.5075 72.1368 46.5075 69.8278C46.5075 67.5191 46.9187 65.3053 47.6144 63.2181V54.2366H36.0397C33.6678 58.9171 32.3079 64.1984 32.3079 69.8278C32.3079 75.4568 33.6678 80.7378 36.0397 85.4188L45.0528 78.3978L47.6144 76.4368Z" fill="#FBBC05"/>
<path d="M67.0954 48.8923C72.2187 48.8923 76.773 50.6633 80.41 54.0788L90.371 44.1169C84.331 38.4877 76.488 35.0405 67.0954 35.0405C53.4967 35.0405 41.7639 42.8519 36.0398 54.2369L47.6145 63.2184C50.3659 54.9959 58.0507 48.8923 67.0954 48.8923Z" fill="#EA4335"/>
<path d="M128.373 42.521C127.336 42.521 126.378 42.3332 125.497 41.9575C124.616 41.5819 123.845 41.0573 123.185 40.3837C122.524 39.7101 122.006 38.9199 121.63 38.0132C121.268 37.1064 121.086 36.1155 121.086 35.0403C121.086 33.9652 121.261 32.9742 121.611 32.0675C121.974 31.1478 122.479 30.3576 123.126 29.697C123.787 29.0234 124.558 28.5053 125.439 28.1426C126.319 27.7669 127.278 27.5791 128.314 27.5791C129.351 27.5791 130.277 27.754 131.093 28.1037C131.922 28.4534 132.621 28.9198 133.191 29.5027C133.761 30.0726 134.169 30.7009 134.415 31.3874L132.064 32.5144C131.792 31.7631 131.333 31.1543 130.685 30.6879C130.037 30.2216 129.247 29.9884 128.314 29.9884C127.408 29.9884 126.604 30.2022 125.905 30.6296C125.218 31.0571 124.681 31.6465 124.292 32.3978C123.917 33.1491 123.729 34.03 123.729 35.0403C123.729 36.0507 123.923 36.938 124.312 37.7023C124.713 38.4536 125.264 39.043 125.963 39.4705C126.663 39.8979 127.466 40.1117 128.373 40.1117C129.111 40.1117 129.791 39.9692 130.413 39.6842C131.035 39.3863 131.533 38.9717 131.909 38.4406C132.285 37.8966 132.472 37.2554 132.472 36.517V35.4095L133.677 36.4588H128.314V34.2243H135.115V35.6815C135.115 36.7955 134.927 37.78 134.551 38.635C134.176 39.4899 133.664 40.2088 133.016 40.7917C132.382 41.3617 131.663 41.7956 130.86 42.0936C130.057 42.3785 129.228 42.521 128.373 42.521ZM142.161 42.521C141.124 42.521 140.179 42.2814 139.324 41.8021C138.482 41.3228 137.808 40.6687 137.303 39.8396C136.811 39.0106 136.565 38.065 136.565 37.0028C136.565 35.9406 136.811 34.995 137.303 34.166C137.808 33.3369 138.482 32.6828 139.324 32.2035C140.166 31.7242 141.111 31.4846 142.161 31.4846C143.197 31.4846 144.136 31.7242 144.978 32.2035C145.82 32.6828 146.487 33.3369 146.979 34.166C147.485 34.982 147.737 35.9277 147.737 37.0028C147.737 38.065 147.485 39.0106 146.979 39.8396C146.474 40.6687 145.801 41.3228 144.959 41.8021C144.117 42.2814 143.184 42.521 142.161 42.521ZM142.161 40.1894C142.731 40.1894 143.229 40.0534 143.657 39.7813C144.097 39.5093 144.441 39.1337 144.687 38.6544C144.946 38.1621 145.075 37.6116 145.075 37.0028C145.075 36.381 144.946 35.837 144.687 35.3707C144.441 34.8914 144.097 34.5157 143.657 34.2437C143.229 33.9587 142.731 33.8162 142.161 33.8162C141.578 33.8162 141.066 33.9587 140.626 34.2437C140.185 34.5157 139.836 34.8914 139.576 35.3707C139.33 35.837 139.207 36.381 139.207 37.0028C139.207 37.6116 139.33 38.1621 139.576 38.6544C139.836 39.1337 140.185 39.5093 140.626 39.7813C141.066 40.0534 141.578 40.1894 142.161 40.1894ZM154.836 42.521C153.8 42.521 152.854 42.2814 151.999 41.8021C151.157 41.3228 150.484 40.6687 149.978 39.8396C149.486 39.0106 149.24 38.065 149.24 37.0028C149.24 35.9406 149.486 34.995 149.978 34.166C150.484 33.3369 151.157 32.6828 151.999 32.2035C152.841 31.7242 153.787 31.4846 154.836 31.4846C155.872 31.4846 156.811 31.7242 157.653 32.2035C158.495 32.6828 159.162 33.3369 159.655 34.166C160.16 34.982 160.413 35.9277 160.413 37.0028C160.413 38.065 160.16 39.0106 159.655 39.8396C159.15 40.6687 158.476 41.3228 157.634 41.8021C156.792 42.2814 155.859 42.521 154.836 42.521ZM154.836 40.1894C155.406 40.1894 155.905 40.0534 156.332 39.7813C156.773 39.5093 157.116 39.1337 157.362 38.6544C157.621 38.1621 157.751 37.6116 157.751 37.0028C157.751 36.381 157.621 35.837 157.362 35.3707C157.116 34.8914 156.773 34.5157 156.332 34.2437C155.905 33.9587 155.406 33.8162 154.836 33.8162C154.253 33.8162 153.741 33.9587 153.301 34.2437C152.861 34.5157 152.511 34.8914 152.252 35.3707C152.006 35.837 151.883 36.381 151.883 37.0028C151.883 37.6116 152.006 38.1621 152.252 38.6544C152.511 39.1337 152.861 39.5093 153.301 39.7813C153.741 40.0534 154.253 40.1894 154.836 40.1894ZM167.472 46.5625C166.682 46.5625 165.95 46.433 165.277 46.1739C164.603 45.9149 164.02 45.5522 163.528 45.0858C163.049 44.6325 162.699 44.0949 162.479 43.4731L164.849 42.5793C165.005 43.0716 165.309 43.4666 165.763 43.7646C166.229 44.0755 166.799 44.2309 167.472 44.2309C167.991 44.2309 168.444 44.1337 168.833 43.9394C169.234 43.7451 169.545 43.4602 169.765 43.0845C169.985 42.7218 170.096 42.2814 170.096 41.7632V39.3539L170.581 39.9368C170.219 40.5715 169.733 41.0508 169.124 41.3746C168.515 41.6985 167.822 41.8604 167.045 41.8604C166.06 41.8604 165.18 41.6337 164.402 41.1803C163.625 40.727 163.016 40.1052 162.576 39.315C162.136 38.5248 161.915 37.6375 161.915 36.6531C161.915 35.6556 162.136 34.7683 162.576 33.9911C163.016 33.2139 163.619 32.6051 164.383 32.1646C165.147 31.7113 166.015 31.4846 166.987 31.4846C167.777 31.4846 168.47 31.653 169.066 31.9898C169.675 32.3136 170.18 32.7864 170.581 33.4082L170.232 34.0494V31.7177H172.641V41.7632C172.641 42.6829 172.414 43.5055 171.961 44.2309C171.52 44.9563 170.912 45.5263 170.134 45.9408C169.37 46.3553 168.483 46.5625 167.472 46.5625ZM167.356 39.5093C167.9 39.5093 168.373 39.3927 168.774 39.1596C169.189 38.9135 169.513 38.5767 169.746 38.1492C169.979 37.7217 170.096 37.2295 170.096 36.6725C170.096 36.1284 169.972 35.6427 169.726 35.2152C169.493 34.7748 169.169 34.4315 168.755 34.1854C168.353 33.9393 167.887 33.8162 167.356 33.8162C166.825 33.8162 166.345 33.9393 165.918 34.1854C165.491 34.4315 165.154 34.7748 164.908 35.2152C164.674 35.6427 164.558 36.1284 164.558 36.6725C164.558 37.2165 164.674 37.7023 164.908 38.1298C165.154 38.5572 165.484 38.894 165.899 39.1401C166.326 39.3863 166.812 39.5093 167.356 39.5093ZM175.018 42.2879V27.5791H177.563V42.2879H175.018ZM184.927 42.521C183.839 42.521 182.886 42.2749 182.07 41.7827C181.254 41.2904 180.62 40.6233 180.166 39.7813C179.713 38.9394 179.486 38.0067 179.486 36.9834C179.486 35.9212 179.713 34.982 180.166 34.166C180.633 33.3369 181.261 32.6828 182.051 32.2035C182.854 31.7242 183.748 31.4846 184.732 31.4846C185.561 31.4846 186.287 31.6206 186.909 31.8926C187.543 32.1646 188.081 32.5403 188.521 33.0196C188.962 33.4989 189.298 34.0494 189.532 34.6712C189.765 35.28 189.881 35.9406 189.881 36.6531C189.881 36.8344 189.868 37.0222 189.843 37.2165C189.83 37.4108 189.797 37.5792 189.745 37.7217H181.585V35.7787H188.308L187.103 36.6919C187.219 36.0961 187.187 35.565 187.006 35.0986C186.837 34.6323 186.552 34.2631 186.151 33.9911C185.762 33.7191 185.289 33.5831 184.732 33.5831C184.201 33.5831 183.728 33.7191 183.314 33.9911C182.899 34.2502 182.582 34.6388 182.362 35.1569C182.155 35.6621 182.077 36.2774 182.129 37.0028C182.077 37.6505 182.161 38.2269 182.381 38.7321C182.614 39.2243 182.951 39.6065 183.392 39.8785C183.845 40.1505 184.363 40.2865 184.946 40.2865C185.529 40.2865 186.021 40.1635 186.423 39.9174C186.837 39.6712 187.161 39.3409 187.394 38.9264L189.454 39.9368C189.247 40.442 188.923 40.8889 188.482 41.2775C188.042 41.6661 187.517 41.9705 186.909 42.1907C186.313 42.4109 185.652 42.521 184.927 42.521ZM195.478 42.2879V27.8122H200.86C201.845 27.8122 202.713 27.9936 203.464 28.3563C204.228 28.706 204.824 29.2242 205.252 29.9107C205.679 30.5843 205.893 31.4069 205.893 32.3784C205.893 33.3758 205.653 34.2243 205.174 34.9238C204.708 35.6232 204.073 36.1414 203.27 36.4782L206.592 42.2879H203.6L200.044 35.9341L201.754 36.9445H198.121V42.2879H195.478ZM198.121 34.6129H200.899C201.378 34.6129 201.793 34.5222 202.143 34.3408C202.492 34.1465 202.764 33.881 202.959 33.5442C203.153 33.2074 203.25 32.8188 203.25 32.3784C203.25 31.925 203.153 31.5364 202.959 31.2126C202.764 30.8758 202.492 30.6167 202.143 30.4353C201.793 30.241 201.378 30.1439 200.899 30.1439H198.121V34.6129ZM211.316 42.521C210.578 42.521 209.937 42.398 209.393 42.1518C208.849 41.9057 208.428 41.556 208.13 41.1026C207.832 40.6363 207.683 40.0987 207.683 39.4899C207.683 38.907 207.812 38.3888 208.072 37.9355C208.331 37.4691 208.732 37.0805 209.276 36.7696C209.82 36.4588 210.507 36.2385 211.336 36.109L214.794 35.5455V37.4886L211.822 37.9938C211.316 38.0844 210.941 38.2463 210.695 38.4795C210.449 38.7127 210.325 39.0171 210.325 39.3927C210.325 39.7554 210.461 40.0469 210.734 40.2671C211.018 40.4744 211.368 40.578 211.783 40.578C212.314 40.578 212.78 40.4679 213.182 40.2477C213.596 40.0145 213.914 39.6971 214.134 39.2956C214.367 38.894 214.484 38.4536 214.484 37.9743V35.2541C214.484 34.8007 214.302 34.425 213.94 34.1271C213.59 33.8162 213.123 33.6608 212.541 33.6608C211.996 33.6608 211.511 33.8097 211.083 34.1077C210.669 34.3927 210.364 34.7748 210.17 35.2541L208.091 34.2437C208.298 33.6867 208.622 33.2074 209.062 32.8058C209.516 32.3913 210.047 32.0675 210.656 31.8343C211.265 31.6012 211.925 31.4846 212.638 31.4846C213.506 31.4846 214.27 31.6465 214.93 31.9703C215.591 32.2812 216.103 32.7216 216.465 33.2916C216.841 33.8486 217.029 34.5028 217.029 35.2541V42.2879H214.62V40.4808L215.164 40.442C214.892 40.8954 214.568 41.2775 214.192 41.5884C213.816 41.8863 213.389 42.1195 212.91 42.2879C212.43 42.4433 211.899 42.521 211.316 42.521ZM224.011 42.4044C222.819 42.4044 221.893 42.0806 221.232 41.4329C220.584 40.7723 220.26 39.8461 220.26 38.6544V33.9911H218.434V31.7177H218.628C219.146 31.7177 219.548 31.5817 219.833 31.3097C220.118 31.0377 220.26 30.6426 220.26 30.1245V29.3084H222.806V31.7177H225.235V33.9911H222.806V38.5184C222.806 38.8681 222.864 39.166 222.981 39.4122C223.11 39.6583 223.305 39.8461 223.564 39.9756C223.836 40.1052 224.179 40.17 224.593 40.17C224.684 40.17 224.788 40.1635 224.904 40.1505C225.034 40.1376 225.157 40.1246 225.273 40.1117V42.2879C225.092 42.3138 224.885 42.3397 224.652 42.3656C224.419 42.3915 224.205 42.4044 224.011 42.4044ZM227.218 42.2879V31.7177H229.764V42.2879H227.218ZM227.218 30.5325V27.8122H229.764V30.5325H227.218ZM232.114 42.2879V31.7177H234.504V33.7968L234.309 33.4276C234.555 32.7929 234.957 32.3136 235.514 31.9898C236.084 31.653 236.745 31.4846 237.496 31.4846C238.273 31.4846 238.96 31.653 239.556 31.9898C240.164 32.3266 240.637 32.7994 240.974 33.4082C241.311 34.0041 241.479 34.6971 241.479 35.4872V42.2879H238.934V36.0896C238.934 35.6232 238.843 35.2217 238.662 34.8849C238.48 34.5481 238.228 34.289 237.904 34.1077C237.593 33.9134 237.224 33.8162 236.796 33.8162C236.382 33.8162 236.013 33.9134 235.689 34.1077C235.365 34.289 235.112 34.5481 234.931 34.8849C234.75 35.2217 234.659 35.6232 234.659 36.0896V42.2879H232.114ZM248.761 46.5625C247.971 46.5625 247.239 46.433 246.566 46.1739C245.892 45.9149 245.309 45.5522 244.817 45.0858C244.337 44.6325 243.988 44.0949 243.768 43.4731L246.138 42.5793C246.293 43.0716 246.598 43.4666 247.051 43.7646C247.518 44.0755 248.088 44.2309 248.761 44.2309C249.279 44.2309 249.733 44.1337 250.121 43.9394C250.523 43.7451 250.834 43.4602 251.054 43.0845C251.274 42.7218 251.384 42.2814 251.384 41.7632V39.3539L251.87 39.9368C251.507 40.5715 251.022 41.0508 250.413 41.3746C249.804 41.6985 249.111 41.8604 248.334 41.8604C247.349 41.8604 246.468 41.6337 245.691 41.1803C244.914 40.727 244.305 40.1052 243.865 39.315C243.424 38.5248 243.204 37.6375 243.204 36.6531C243.204 35.6556 243.424 34.7683 243.865 33.9911C244.305 33.2139 244.907 32.6051 245.672 32.1646C246.436 31.7113 247.304 31.4846 248.275 31.4846C249.066 31.4846 249.759 31.653 250.354 31.9898C250.963 32.3136 251.468 32.7864 251.87 33.4082L251.52 34.0494V31.7177H253.93V41.7632C253.93 42.6829 253.703 43.5055 253.25 44.2309C252.809 44.9563 252.2 45.5263 251.423 45.9408C250.659 46.3553 249.772 46.5625 248.761 46.5625ZM248.645 39.5093C249.189 39.5093 249.661 39.3927 250.063 39.1596C250.477 38.9135 250.801 38.5767 251.034 38.1492C251.268 37.7217 251.384 37.2295 251.384 36.6725C251.384 36.1284 251.261 35.6427 251.015 35.2152C250.782 34.7748 250.458 34.4315 250.044 34.1854C249.642 33.9393 249.176 33.8162 248.645 33.8162C248.113 33.8162 247.634 33.9393 247.207 34.1854C246.779 34.4315 246.442 34.7748 246.196 35.2152C245.963 35.6427 245.847 36.1284 245.847 36.6725C245.847 37.2165 245.963 37.7023 246.196 38.1298C246.442 38.5572 246.773 38.894 247.187 39.1401C247.615 39.3863 248.101 39.5093 248.645 39.5093Z" fill="#6A6A6A"/>
<path d="M128.612 82.3538C127.466 82.3538 126.358 82.1408 125.29 81.7128C124.221 81.2658 123.308 80.6438 122.55 79.8478C121.792 79.0318 121.297 78.0598 121.063 76.9328L125.056 75.5928C125.348 76.5248 125.814 77.2048 126.455 77.6328C127.097 78.0598 127.816 78.2738 128.612 78.2738C129.292 78.2738 129.885 78.1378 130.39 77.8658C130.895 77.5738 131.284 77.1758 131.556 76.6708C131.847 76.1458 131.993 75.5438 131.993 74.8638C131.993 74.1838 131.847 73.5908 131.556 73.0858C131.284 72.5808 130.895 72.1918 130.39 71.9198C129.885 71.6288 129.292 71.4828 128.612 71.4828C127.913 71.4828 127.291 71.6388 126.747 71.9488C126.203 72.2408 125.805 72.6968 125.552 73.3188L121.85 72.4448L123.599 60.291H135.724V64.0799H125.435L127.126 62.0397L125.931 71.0748L124.707 69.9968C125.192 69.1998 125.805 68.6168 126.543 68.2477C127.301 67.8785 128.272 67.694 129.457 67.694C130.915 67.694 132.168 68.0048 133.217 68.6268C134.266 69.2288 135.073 70.0648 135.636 71.1328C136.219 72.2018 136.511 73.4458 136.511 74.8638C136.511 76.2818 136.161 77.5648 135.461 78.7108C134.781 79.8378 133.849 80.7318 132.663 81.3928C131.478 82.0338 130.128 82.3538 128.612 82.3538ZM141.677 82.0048V77.6328H146.049V82.0048H141.677ZM160.015 82.3538C158.286 82.3538 156.761 81.8878 155.44 80.9548C154.138 80.0228 153.118 78.7108 152.379 77.0208C151.641 75.3298 151.272 73.3678 151.272 71.1328C151.272 68.8788 151.631 66.9167 152.35 65.2457C153.088 63.5747 154.109 62.2729 155.41 61.3402C156.732 60.4076 158.257 59.9412 159.986 59.9412C161.754 59.9412 163.289 60.4076 164.591 61.3402C165.912 62.2729 166.933 63.5844 167.652 65.2749C168.39 66.9459 168.759 68.8988 168.759 71.1328C168.759 73.3678 168.39 75.3298 167.652 77.0208C166.933 78.6918 165.912 80.0028 164.591 80.9548C163.289 81.8878 161.764 82.3538 160.015 82.3538ZM160.045 78.2738C160.938 78.2738 161.696 77.9918 162.318 77.4288C162.94 76.8648 163.416 76.0488 163.746 74.9808C164.076 73.9118 164.241 72.6288 164.241 71.1328C164.241 69.6368 164.076 68.3643 163.746 67.3151C163.416 66.2464 162.93 65.4303 162.289 64.8668C161.667 64.3034 160.899 64.0216 159.986 64.0216C159.092 64.0216 158.335 64.3034 157.713 64.8668C157.091 65.4303 156.615 66.2464 156.285 67.3151C155.954 68.3643 155.789 69.6368 155.789 71.1328C155.789 72.6098 155.954 73.8828 156.285 74.9508C156.615 76.0198 157.091 76.8458 157.713 77.4288C158.354 77.9918 159.131 78.2738 160.045 78.2738Z" fill="#FEA500"/>
<path d="M205.963 56.1918C206.409 55.2931 207.691 55.2931 208.138 56.1918L211.784 63.5317C211.961 63.8876 212.301 64.1344 212.694 64.1926L220.802 65.3928C221.794 65.5398 222.191 66.7591 221.474 67.4615L215.62 73.1978C215.336 73.4758 215.207 73.8758 215.273 74.2678L216.637 82.3488C216.804 83.3388 215.766 84.0918 214.877 83.6278L207.612 79.8328C207.26 79.6488 206.84 79.6488 206.488 79.8328L199.223 83.6278C198.334 84.0918 197.297 83.3388 197.464 82.3488L198.827 74.2678C198.894 73.8758 198.764 73.4758 198.48 73.1978L192.626 67.4615C191.91 66.7591 192.306 65.5398 193.298 65.3928L201.406 64.1926C201.799 64.1344 202.139 63.8876 202.316 63.5317L205.963 56.1918Z" fill="#FEA500"/>
<path d="M239.966 56.1918C240.412 55.2931 241.694 55.2931 242.141 56.1918L245.788 63.5317C245.964 63.8876 246.304 64.1344 246.697 64.1926L254.805 65.3928C255.798 65.5398 256.194 66.7591 255.477 67.4615L249.623 73.1978C249.34 73.4758 249.21 73.8758 249.276 74.2678L250.64 82.3488C250.807 83.3388 249.77 84.0918 248.88 83.6278L241.616 79.8328C241.263 79.6488 240.843 79.6488 240.491 79.8328L233.226 83.6278C232.337 84.0918 231.3 83.3388 231.467 82.3488L232.831 74.2678C232.897 73.8758 232.767 73.4758 232.483 73.1978L226.63 67.4615C225.913 66.7591 226.309 65.5398 227.302 65.3928L235.409 64.1926C235.802 64.1344 236.142 63.8876 236.319 63.5317L239.966 56.1918Z" fill="#FEA500"/>
<path d="M273.969 56.1918C274.415 55.2931 275.697 55.2931 276.144 56.1918L279.791 63.5317C279.968 63.8876 280.307 64.1344 280.7 64.1926L288.808 65.3928C289.801 65.5398 290.197 66.7591 289.48 67.4615L283.626 73.1978C283.343 73.4758 283.213 73.8758 283.279 74.2678L284.643 82.3488C284.81 83.3388 283.773 84.0918 282.883 83.6278L275.619 79.8328C275.266 79.6488 274.846 79.6488 274.494 79.8328L267.23 83.6278C266.34 84.0918 265.303 83.3388 265.47 82.3488L266.834 74.2678C266.9 73.8758 266.77 73.4758 266.486 73.1978L260.633 67.4615C259.916 66.7591 260.312 65.5398 261.305 65.3928L269.412 64.1926C269.805 64.1344 270.145 63.8876 270.322 63.5317L273.969 56.1918Z" fill="#FEA500"/>
<path d="M307.972 56.1918C308.418 55.2931 309.701 55.2931 310.147 56.1918L313.794 63.5317C313.971 63.8876 314.31 64.1344 314.704 64.1926L322.811 65.3928C323.804 65.5398 324.2 66.7591 323.483 67.4615L317.63 73.1978C317.346 73.4758 317.216 73.8758 317.282 74.2678L318.646 82.3488C318.813 83.3388 317.776 84.0918 316.886 83.6278L309.622 79.8328C309.27 79.6488 308.85 79.6488 308.497 79.8328L301.233 83.6278C300.343 84.0918 299.306 83.3388 299.473 82.3488L300.837 74.2678C300.903 73.8758 300.773 73.4758 300.489 73.1978L294.636 67.4615C293.919 66.7591 294.315 65.5398 295.308 65.3928L303.415 64.1926C303.809 64.1344 304.148 63.8876 304.325 63.5317L307.972 56.1918Z" fill="#FEA500"/>
<path d="M341.975 56.1918C342.422 55.2931 343.704 55.2931 344.15 56.1918L347.797 63.5317C347.974 63.8876 348.314 64.1344 348.707 64.1926L356.814 65.3928C357.807 65.5398 358.203 66.7591 357.486 67.4615L351.633 73.1978C351.349 73.4758 351.219 73.8758 351.285 74.2678L352.649 82.3488C352.816 83.3388 351.779 84.0918 350.889 83.6278L343.625 79.8328C343.273 79.6488 342.853 79.6488 342.5 79.8328L335.236 83.6278C334.346 84.0918 333.309 83.3388 333.476 82.3488L334.84 74.2678C334.906 73.8758 334.776 73.4758 334.492 73.1978L328.639 67.4615C327.922 66.7591 328.318 65.5398 329.311 65.3928L337.418 64.1926C337.812 64.1344 338.151 63.8876 338.328 63.5317L341.975 56.1918Z" fill="#FEA500"/>
<path d="M124.955 112.897C124.265 112.897 123.639 112.765 123.075 112.503C122.512 112.241 122.036 111.891 121.647 111.454C121.259 111.007 120.982 110.516 120.816 109.982L121.866 109.589C122.118 110.327 122.512 110.89 123.046 111.279C123.58 111.658 124.217 111.847 124.955 111.847C125.421 111.847 125.83 111.774 126.179 111.629C126.539 111.473 126.816 111.26 127.01 110.987C127.204 110.715 127.301 110.4 127.301 110.04C127.301 109.506 127.156 109.093 126.864 108.802C126.573 108.51 126.155 108.287 125.611 108.131L123.658 107.548C122.891 107.325 122.298 106.951 121.88 106.426C121.472 105.902 121.268 105.304 121.268 104.634C121.268 104.061 121.409 103.555 121.691 103.118C121.973 102.671 122.356 102.322 122.842 102.069C123.338 101.816 123.896 101.69 124.518 101.69C125.169 101.69 125.752 101.812 126.267 102.054C126.791 102.288 127.233 102.598 127.593 102.987C127.952 103.376 128.21 103.808 128.365 104.284L127.345 104.692C127.112 104.051 126.748 103.565 126.252 103.235C125.766 102.904 125.193 102.739 124.533 102.739C124.115 102.739 123.746 102.812 123.425 102.958C123.114 103.104 122.871 103.313 122.696 103.585C122.522 103.857 122.434 104.177 122.434 104.546C122.434 104.993 122.575 105.396 122.857 105.756C123.138 106.106 123.571 106.368 124.154 106.543L125.873 107.053C126.728 107.305 127.374 107.67 127.811 108.146C128.249 108.622 128.467 109.219 128.467 109.938C128.467 110.521 128.317 111.036 128.015 111.483C127.724 111.92 127.311 112.265 126.777 112.518C126.252 112.77 125.645 112.897 124.955 112.897ZM134.114 112.897C133.385 112.897 132.725 112.722 132.132 112.372C131.549 112.012 131.088 111.522 130.748 110.9C130.408 110.278 130.238 109.574 130.238 108.787C130.238 108 130.403 107.305 130.733 106.703C131.063 106.091 131.51 105.61 132.074 105.26C132.647 104.911 133.288 104.736 133.997 104.736C134.561 104.736 135.061 104.843 135.498 105.056C135.945 105.26 136.324 105.542 136.635 105.902C136.946 106.251 137.184 106.65 137.349 107.097C137.514 107.534 137.597 107.986 137.597 108.452C137.597 108.549 137.592 108.661 137.582 108.787C137.573 108.904 137.558 109.025 137.539 109.151H130.937V108.131H136.912L136.387 108.568C136.475 108.034 136.412 107.558 136.198 107.14C135.994 106.713 135.697 106.378 135.309 106.135C134.92 105.882 134.483 105.756 133.997 105.756C133.512 105.756 133.06 105.882 132.642 106.135C132.234 106.387 131.913 106.742 131.68 107.199C131.447 107.645 131.355 108.18 131.403 108.802C131.355 109.423 131.452 109.967 131.695 110.434C131.947 110.89 132.287 111.245 132.715 111.498C133.152 111.75 133.618 111.876 134.114 111.876C134.687 111.876 135.168 111.74 135.557 111.468C135.945 111.196 136.261 110.856 136.504 110.448L137.437 110.944C137.281 111.294 137.043 111.619 136.722 111.92C136.402 112.212 136.018 112.45 135.571 112.634C135.134 112.809 134.648 112.897 134.114 112.897ZM143.08 112.897C142.351 112.897 141.69 112.722 141.098 112.372C140.515 112.012 140.053 111.522 139.713 110.9C139.373 110.278 139.203 109.574 139.203 108.787C139.203 108 139.368 107.305 139.699 106.703C140.029 106.091 140.476 105.61 141.039 105.26C141.613 104.911 142.254 104.736 142.963 104.736C143.526 104.736 144.027 104.843 144.464 105.056C144.911 105.26 145.29 105.542 145.601 105.902C145.912 106.251 146.15 106.65 146.315 107.097C146.48 107.534 146.562 107.986 146.562 108.452C146.562 108.549 146.558 108.661 146.548 108.787C146.538 108.904 146.524 109.025 146.504 109.151H139.903V108.131H145.878L145.353 108.568C145.44 108.034 145.377 107.558 145.163 107.14C144.959 106.713 144.663 106.378 144.275 106.135C143.886 105.882 143.449 105.756 142.963 105.756C142.477 105.756 142.025 105.882 141.608 106.135C141.2 106.387 140.879 106.742 140.646 107.199C140.413 107.645 140.32 108.18 140.369 108.802C140.32 109.423 140.418 109.967 140.661 110.434C140.913 110.89 141.253 111.245 141.681 111.498C142.118 111.75 142.584 111.876 143.08 111.876C143.653 111.876 144.134 111.74 144.522 111.468C144.911 111.196 145.227 110.856 145.47 110.448L146.402 110.944C146.247 111.294 146.009 111.619 145.688 111.92C145.368 112.212 144.984 112.45 144.537 112.634C144.1 112.809 143.614 112.897 143.08 112.897ZM153.225 112.897C152.729 112.897 152.287 112.804 151.898 112.62C151.51 112.425 151.204 112.163 150.98 111.833C150.757 111.502 150.645 111.124 150.645 110.696C150.645 110.288 150.733 109.919 150.907 109.589C151.082 109.248 151.354 108.962 151.724 108.729C152.093 108.496 152.564 108.33 153.137 108.233L156.197 107.723V108.714L153.399 109.18C152.836 109.278 152.428 109.457 152.175 109.72C151.932 109.982 151.811 110.293 151.811 110.652C151.811 111.002 151.947 111.298 152.219 111.541C152.501 111.784 152.86 111.906 153.297 111.906C153.832 111.906 154.298 111.794 154.696 111.57C155.095 111.337 155.406 111.026 155.629 110.638C155.852 110.249 155.964 109.817 155.964 109.341V107.359C155.964 106.893 155.794 106.514 155.454 106.222C155.114 105.931 154.672 105.785 154.128 105.785C153.652 105.785 153.234 105.906 152.875 106.149C152.515 106.382 152.248 106.689 152.073 107.067L151.082 106.528C151.228 106.198 151.456 105.897 151.767 105.625C152.088 105.353 152.452 105.139 152.86 104.984C153.268 104.818 153.691 104.736 154.128 104.736C154.701 104.736 155.206 104.848 155.644 105.071C156.09 105.294 156.435 105.605 156.678 106.004C156.931 106.392 157.057 106.844 157.057 107.359V112.722H155.964V111.162L156.124 111.323C155.988 111.614 155.775 111.881 155.483 112.124C155.202 112.357 154.866 112.547 154.478 112.693C154.099 112.829 153.681 112.897 153.225 112.897ZM159.305 112.722V101.69H160.398V112.722H159.305ZM162.635 112.722V101.69H163.728V112.722H162.635ZM172.099 112.897C171.361 112.897 170.691 112.722 170.088 112.372C169.486 112.012 169.005 111.527 168.646 110.915C168.296 110.293 168.121 109.589 168.121 108.802C168.121 108.024 168.296 107.33 168.646 106.718C168.995 106.106 169.467 105.625 170.059 105.275C170.662 104.916 171.342 104.736 172.099 104.736C172.857 104.736 173.532 104.911 174.125 105.26C174.727 105.61 175.199 106.091 175.539 106.703C175.888 107.315 176.063 108.015 176.063 108.802C176.063 109.598 175.883 110.307 175.524 110.929C175.165 111.541 174.684 112.022 174.081 112.372C173.489 112.722 172.828 112.897 172.099 112.897ZM172.099 111.804C172.624 111.804 173.095 111.672 173.513 111.41C173.94 111.148 174.276 110.788 174.519 110.332C174.771 109.875 174.897 109.365 174.897 108.802C174.897 108.238 174.771 107.733 174.519 107.286C174.276 106.839 173.94 106.485 173.513 106.222C173.095 105.96 172.624 105.829 172.099 105.829C171.575 105.829 171.099 105.96 170.671 106.222C170.254 106.485 169.918 106.839 169.666 107.286C169.413 107.733 169.287 108.238 169.287 108.802C169.287 109.365 169.413 109.875 169.666 110.332C169.918 110.788 170.254 111.148 170.671 111.41C171.099 111.672 171.575 111.804 172.099 111.804ZM180.76 112.897C180.216 112.897 179.72 112.77 179.273 112.518C178.826 112.255 178.472 111.896 178.209 111.439C177.957 110.973 177.831 110.439 177.831 109.836V104.911H178.923V109.705C178.923 110.123 179.006 110.492 179.171 110.813C179.346 111.124 179.584 111.366 179.885 111.541C180.196 111.716 180.551 111.804 180.949 111.804C181.347 111.804 181.702 111.716 182.013 111.541C182.324 111.357 182.567 111.099 182.742 110.769C182.916 110.429 183.004 110.026 183.004 109.559V104.911H184.097V112.722H183.004V111.206L183.252 111.264C183.067 111.77 182.751 112.168 182.304 112.459C181.857 112.751 181.343 112.897 180.76 112.897ZM186.345 112.722V104.911H187.437V106.193L187.292 106.004C187.476 105.634 187.753 105.343 188.122 105.129C188.501 104.916 188.958 104.809 189.492 104.809H189.988V105.902H189.303C188.739 105.902 188.288 106.076 187.948 106.426C187.608 106.776 187.437 107.271 187.437 107.913V112.722H186.345ZM193.745 112.722V104.911H194.838V106.193L194.692 106.004C194.877 105.634 195.153 105.343 195.523 105.129C195.902 104.916 196.358 104.809 196.892 104.809H197.388V105.902H196.703C196.14 105.902 195.688 106.076 195.348 106.426C195.008 106.776 194.838 107.271 194.838 107.913V112.722H193.745ZM202.225 112.897C201.496 112.897 200.835 112.722 200.243 112.372C199.66 112.012 199.198 111.522 198.858 110.9C198.518 110.278 198.348 109.574 198.348 108.787C198.348 108 198.513 107.305 198.844 106.703C199.174 106.091 199.621 105.61 200.184 105.26C200.758 104.911 201.399 104.736 202.108 104.736C202.671 104.736 203.172 104.843 203.609 105.056C204.056 105.26 204.435 105.542 204.746 105.902C205.057 106.251 205.295 106.65 205.46 107.097C205.625 107.534 205.707 107.986 205.707 108.452C205.707 108.549 205.703 108.661 205.693 108.787C205.683 108.904 205.669 109.025 205.649 109.151H199.048V108.131H205.023L204.498 108.568C204.585 108.034 204.522 107.558 204.308 107.14C204.104 106.713 203.808 106.378 203.419 106.135C203.031 105.882 202.594 105.756 202.108 105.756C201.622 105.756 201.17 105.882 200.753 106.135C200.345 106.387 200.024 106.742 199.791 107.199C199.558 107.645 199.465 108.18 199.514 108.802C199.465 109.423 199.563 109.967 199.805 110.434C200.058 110.89 200.398 111.245 200.826 111.498C201.263 111.75 201.729 111.876 202.225 111.876C202.798 111.876 203.279 111.74 203.667 111.468C204.056 111.196 204.372 110.856 204.614 110.448L205.547 110.944C205.392 111.294 205.154 111.619 204.833 111.92C204.512 112.212 204.129 112.45 203.682 112.634C203.245 112.809 202.759 112.897 202.225 112.897ZM209.576 112.722L206.53 104.911H207.754L210.319 111.76H209.926L212.505 104.911H213.744L210.669 112.722H209.576ZM215.02 112.722V104.911H216.113V112.722H215.02ZM215.02 103.468V101.865H216.113V103.468H215.02ZM221.906 112.897C221.178 112.897 220.517 112.722 219.924 112.372C219.342 112.012 218.88 111.522 218.54 110.9C218.2 110.278 218.03 109.574 218.03 108.787C218.03 108 218.195 107.305 218.525 106.703C218.856 106.091 219.303 105.61 219.866 105.26C220.439 104.911 221.081 104.736 221.79 104.736C222.353 104.736 222.854 104.843 223.291 105.056C223.738 105.26 224.117 105.542 224.427 105.902C224.738 106.251 224.976 106.65 225.141 107.097C225.307 107.534 225.389 107.986 225.389 108.452C225.389 108.549 225.384 108.661 225.375 108.787C225.365 108.904 225.35 109.025 225.331 109.151H218.729V108.131H224.704L224.18 108.568C224.267 108.034 224.204 107.558 223.99 107.14C223.786 106.713 223.49 106.378 223.101 106.135C222.713 105.882 222.275 105.756 221.79 105.756C221.304 105.756 220.852 105.882 220.434 106.135C220.026 106.387 219.706 106.742 219.473 107.199C219.239 107.645 219.147 108.18 219.196 108.802C219.147 109.423 219.244 109.967 219.487 110.434C219.74 110.89 220.08 111.245 220.507 111.498C220.945 111.75 221.411 111.876 221.906 111.876C222.48 111.876 222.96 111.74 223.349 111.468C223.738 111.196 224.053 110.856 224.296 110.448L225.229 110.944C225.073 111.294 224.835 111.619 224.515 111.92C224.194 112.212 223.81 112.45 223.364 112.634C222.926 112.809 222.441 112.897 221.906 112.897ZM229.036 112.722L226.354 104.911H227.593L229.808 111.745H229.371L231.455 104.911H232.548L234.632 111.745H234.195L236.424 104.911H237.648L234.967 112.722H233.874L231.848 106.033H232.154L230.129 112.722H229.036ZM241.639 112.897C240.891 112.897 240.236 112.707 239.672 112.328C239.109 111.949 238.701 111.434 238.448 110.783L239.366 110.346C239.59 110.822 239.9 111.201 240.299 111.483C240.707 111.765 241.154 111.906 241.639 111.906C242.106 111.906 242.499 111.794 242.82 111.57C243.14 111.337 243.301 111.036 243.301 110.667C243.301 110.395 243.223 110.181 243.068 110.026C242.912 109.861 242.732 109.734 242.528 109.647C242.324 109.559 242.145 109.496 241.989 109.457L240.867 109.137C240.148 108.933 239.628 108.646 239.308 108.277C238.987 107.908 238.827 107.48 238.827 106.995C238.827 106.538 238.943 106.14 239.177 105.8C239.41 105.46 239.726 105.197 240.124 105.013C240.522 104.828 240.964 104.736 241.45 104.736C242.111 104.736 242.708 104.911 243.242 105.26C243.786 105.6 244.17 106.076 244.394 106.689L243.461 107.126C243.267 106.689 242.985 106.348 242.616 106.106C242.256 105.853 241.853 105.727 241.406 105.727C240.969 105.727 240.619 105.838 240.357 106.062C240.095 106.285 239.964 106.567 239.964 106.907C239.964 107.169 240.032 107.378 240.168 107.534C240.304 107.689 240.459 107.806 240.634 107.883C240.819 107.961 240.979 108.02 241.115 108.058L242.412 108.437C243.043 108.622 243.534 108.908 243.884 109.297C244.243 109.686 244.423 110.142 244.423 110.667C244.423 111.094 244.301 111.478 244.059 111.818C243.825 112.158 243.5 112.425 243.082 112.62C242.664 112.804 242.183 112.897 241.639 112.897Z" fill="#868686"/>
</svg>
