<svg width="99" height="32" viewBox="0 0 99 32" fill="none" xmlns="http://www.w3.org/2000/svg">
<path d="M37.1903 21.5735C39.4422 21.5735 41.4101 21.1373 43.094 20.2649C44.7981 19.4129 46.1067 18.1753 47.0196 16.5523C47.9528 14.9496 48.4195 13.073 48.4195 10.9225C48.4195 8.77203 47.9528 6.90557 47.0196 5.32314C46.1067 3.74071 44.7981 2.52346 43.094 1.67138C41.4101 0.839586 39.4422 0.423691 37.1903 0.423691H30.2824V21.5735H37.1903ZM37.1903 3.25381C39.6654 3.25381 41.5622 3.9233 42.8809 5.26228C44.1996 6.60126 44.859 8.488 44.859 10.9225C44.859 13.3773 44.1996 15.2945 42.8809 16.674C41.5622 18.0536 39.6654 18.7434 37.1903 18.7434H33.7515V3.25381H37.1903Z" fill="black"/>
<path d="M63.9291 21.6367C61.9612 21.6367 60.1455 21.1802 58.4819 20.2673C56.8386 19.3341 55.53 18.0458 54.5562 16.4025C53.6027 14.7389 53.126 12.8725 53.126 10.8031C53.126 8.73381 53.6027 6.87749 54.5562 5.2342C55.53 3.59091 56.8386 2.31279 58.4819 1.39985C60.1455 0.466618 61.9612 3.42919e-06 63.9291 3.42919e-06C65.9173 3.42919e-06 67.733 0.466618 69.3763 1.39985C71.0399 2.31279 72.3484 3.59091 73.302 5.2342C74.2555 6.87749 74.7322 8.73381 74.7322 10.8031C74.7322 12.8725 74.2555 14.7389 73.302 16.4025C72.3484 18.0458 71.0399 19.3341 69.3763 20.2673C67.733 21.1802 65.9173 21.6367 63.9291 21.6367ZM63.9291 18.624C65.3289 18.624 66.5766 18.3095 67.6722 17.6806C68.7677 17.0314 69.6198 16.1185 70.2284 14.9418C70.8573 13.7448 71.1718 12.3653 71.1718 10.8031C71.1718 9.241 70.8573 7.87159 70.2284 6.69491C69.6198 5.51823 68.7677 4.61543 67.6722 3.98651C66.5766 3.3576 65.3289 3.04314 63.9291 3.04314C62.5293 3.04314 61.2816 3.3576 60.186 3.98651C59.0905 4.61543 58.2283 5.51823 57.5994 6.69491C56.9907 7.87159 56.6864 9.241 56.6864 10.8031C56.6864 12.3653 56.9907 13.7448 57.5994 14.9418C58.2283 16.1185 59.0905 17.0314 60.186 17.6806C61.2816 18.3095 62.5293 18.624 63.9291 18.624Z" fill="black"/>
<path d="M45.2953 11.3632L47.8611 10.3345C49.5332 9.66417 51.389 9.6089 53.098 10.1786L56.1569 11.1982" stroke="black" stroke-width="1.14118"/>
<path d="M32.3824 11.1982L7.65686 21.659M74.2255 8.34526L44.7451 21.659" stroke="black" stroke-width="1.14118"/>
<path d="M2.79588 24.7954C3.51863 24.7954 4.1431 24.9317 4.66931 25.2043C5.20186 25.4706 5.60761 25.8541 5.88657 26.355C6.17186 26.8558 6.31451 27.4454 6.31451 28.1238C6.31451 28.8022 6.17186 29.3918 5.88657 29.8926C5.60761 30.3871 5.20186 30.7675 4.66931 31.0338C4.1431 31.2937 3.51863 31.4237 2.79588 31.4237H0.732255V24.7954H2.79588ZM2.79588 30.7105C3.65176 30.7105 4.30477 30.4854 4.7549 30.0353C5.20503 29.5788 5.4301 28.9416 5.4301 28.1238C5.4301 27.2996 5.20186 26.6561 4.74539 26.1933C4.29526 25.7305 3.64542 25.4991 2.79588 25.4991H1.59765V30.7105H2.79588ZM8.30236 24.7954V28.9892C8.30236 29.5788 8.445 30.0162 8.7303 30.3015C9.02193 30.5868 9.42451 30.7295 9.93804 30.7295C10.4452 30.7295 10.8415 30.5868 11.1268 30.3015C11.4184 30.0162 11.5642 29.5788 11.5642 28.9892V24.7954H12.4296V28.9797C12.4296 29.5312 12.3187 29.9972 12.0968 30.3776C11.8749 30.7517 11.5737 31.0306 11.1933 31.2145C10.8193 31.3983 10.3977 31.4903 9.92853 31.4903C9.45938 31.4903 9.03461 31.3983 8.65422 31.2145C8.28017 31.0306 7.98219 30.7517 7.7603 30.3776C7.54474 29.9972 7.43696 29.5312 7.43696 28.9797V24.7954H8.30236ZM19.0846 31.4237H18.2192L14.7386 26.1457V31.4237H13.8732V24.7858H14.7386L18.2192 30.0543V24.7858H19.0846V31.4237ZM21.4252 30.72H23.7456V31.4237H20.5598V24.7954H21.4252V30.72ZM25.53 25.4991V27.7149H27.9455V28.4281H25.53V30.7105H28.2308V31.4237H24.6646V24.7858H28.2308V25.4991H25.53ZM33.4583 29.9497H30.5673L30.0348 31.4237H29.1218L31.5183 24.8334H32.5168L34.9038 31.4237H33.9909L33.4583 29.9497ZM33.2111 29.2459L32.0128 25.8985L30.8146 29.2459H33.2111ZM41.4259 24.7954L38.9248 31.4237H37.9263L35.4252 24.7954H36.3477L38.4303 30.5107L40.513 24.7954H41.4259ZM47.0156 24.7954L44.8569 28.9226V31.4237H43.9915V28.9226L41.8232 24.7954H42.7837L44.4194 28.1523L46.0551 24.7954H47.0156ZM53.4688 31.4903C52.8538 31.4903 52.2928 31.3476 51.7856 31.0623C51.2784 30.7707 50.8758 30.3681 50.5778 29.8546C50.2862 29.3347 50.1404 28.7514 50.1404 28.1048C50.1404 27.4581 50.2862 26.878 50.5778 26.3645C50.8758 25.8446 51.2784 25.442 51.7856 25.1567C52.2928 24.8651 52.8538 24.7193 53.4688 24.7193C54.0901 24.7193 54.6544 24.8651 55.1615 25.1567C55.6687 25.442 56.0681 25.8414 56.3598 26.355C56.6514 26.8685 56.7972 27.4518 56.7972 28.1048C56.7972 28.7578 56.6514 29.341 56.3598 29.8546C56.0681 30.3681 55.6687 30.7707 55.1615 31.0623C54.6544 31.3476 54.0901 31.4903 53.4688 31.4903ZM53.4688 30.739C53.9316 30.739 54.3469 30.6312 54.7146 30.4157C55.0886 30.2001 55.3803 29.8926 55.5895 29.4932C55.805 29.0938 55.9128 28.631 55.9128 28.1048C55.9128 27.5722 55.805 27.1094 55.5895 26.7163C55.3803 26.3169 55.0918 26.0094 54.7241 25.7939C54.3564 25.5783 53.9379 25.4706 53.4688 25.4706C52.9996 25.4706 52.5812 25.5783 52.2135 25.7939C51.8458 26.0094 51.5542 26.3169 51.3386 26.7163C51.1294 27.1094 51.0248 27.5722 51.0248 28.1048C51.0248 28.631 51.1294 29.0938 51.3386 29.4932C51.5542 29.8926 51.8458 30.2001 52.2135 30.4157C52.5876 30.6312 53.006 30.739 53.4688 30.739ZM62.3712 26.7354C62.3712 27.2869 62.181 27.7466 61.8006 28.1143C61.4266 28.4757 60.8528 28.6563 60.0794 28.6563H58.8051V31.4237H57.9397V24.7954H60.0794C60.8275 24.7954 61.3949 24.976 61.7816 25.3374C62.1747 25.6988 62.3712 26.1648 62.3712 26.7354ZM60.0794 27.9431C60.5612 27.9431 60.9162 27.8385 61.1445 27.6293C61.3727 27.4201 61.4868 27.1221 61.4868 26.7354C61.4868 25.9175 61.0177 25.5086 60.0794 25.5086H58.8051V27.9431H60.0794ZM67.5265 24.7954V25.4991H65.7197V31.4237H64.8543V25.4991H63.0379V24.7954H67.5265ZM69.4572 24.7954V31.4237H68.5918V24.7954H69.4572ZM70.6087 28.1048C70.6087 27.4581 70.7546 26.878 71.0462 26.3645C71.3378 25.8446 71.7341 25.4389 72.2349 25.1472C72.7421 24.8556 73.3032 24.7098 73.9181 24.7098C74.6409 24.7098 75.2717 24.8841 75.8106 25.2328C76.3495 25.5815 76.7426 26.076 76.9898 26.7163H75.9532C75.7694 26.3169 75.5031 26.0094 75.1544 25.7939C74.8121 25.5783 74.4 25.4706 73.9181 25.4706C73.4553 25.4706 73.0401 25.5783 72.6724 25.7939C72.3047 26.0094 72.0162 26.3169 71.807 26.7163C71.5978 27.1094 71.4931 27.5722 71.4931 28.1048C71.4931 28.631 71.5978 29.0938 71.807 29.4932C72.0162 29.8863 72.3047 30.1906 72.6724 30.4061C73.0401 30.6217 73.4553 30.7295 73.9181 30.7295C74.4 30.7295 74.8121 30.6249 75.1544 30.4157C75.5031 30.2001 75.7694 29.8926 75.9532 29.4932H76.9898C76.7426 30.1272 76.3495 30.6185 75.8106 30.9672C75.2717 31.3096 74.6409 31.4807 73.9181 31.4807C73.3032 31.4807 72.7421 31.3381 72.2349 31.0528C71.7341 30.7612 71.3378 30.3586 71.0462 29.8451C70.7546 29.3315 70.6087 28.7514 70.6087 28.1048ZM79.1434 24.7954V31.4237H78.278V24.7954H79.1434ZM84.5364 29.9497H81.6454L81.1128 31.4237H80.1999L82.5964 24.8334H83.5949L85.9819 31.4237H85.0689L84.5364 29.9497ZM84.2891 29.2459L83.0909 25.8985L81.8926 29.2459H84.2891ZM92.2377 31.4237H91.3723L87.8917 26.1457V31.4237H87.0263V24.7858H87.8917L91.3723 30.0543V24.7858H92.2377V31.4237ZM95.8145 31.4903C95.3771 31.4903 94.984 31.4142 94.6353 31.262C94.293 31.1035 94.0235 30.888 93.827 30.6154C93.6305 30.3364 93.529 30.0162 93.5227 29.6549H94.4451C94.4768 29.9655 94.6036 30.2286 94.8255 30.4442C95.0538 30.6534 95.3834 30.758 95.8145 30.758C96.2266 30.758 96.55 30.6566 96.7845 30.4537C97.0255 30.2445 97.1459 29.9782 97.1459 29.6549C97.1459 29.4013 97.0762 29.1952 96.9367 29.0367C96.7972 28.8782 96.6229 28.7578 96.4137 28.6754C96.2044 28.5929 95.9223 28.5042 95.5673 28.4091C95.1298 28.295 94.778 28.1808 94.5117 28.0667C94.2518 27.9526 94.0267 27.7751 93.8365 27.5342C93.6526 27.2869 93.5607 26.9573 93.5607 26.5452C93.5607 26.1838 93.6526 25.8636 93.8365 25.5847C94.0204 25.3057 94.2771 25.0902 94.6068 24.938C94.9428 24.7858 95.3264 24.7098 95.7575 24.7098C96.3788 24.7098 96.886 24.8651 97.2791 25.1757C97.6785 25.4864 97.9035 25.8985 97.9542 26.412H97.0033C96.9716 26.1584 96.8384 25.9365 96.6039 25.7463C96.3693 25.5498 96.0586 25.4515 95.6719 25.4515C95.3105 25.4515 95.0157 25.5466 94.7875 25.7368C94.5592 25.9207 94.4451 26.1806 94.4451 26.5166C94.4451 26.7575 94.5117 26.9541 94.6448 27.1062C94.7843 27.2584 94.9523 27.3757 95.1489 27.4581C95.3517 27.5342 95.6339 27.6229 95.9952 27.7244C96.4327 27.8448 96.7845 27.9653 97.0508 28.0857C97.3171 28.1999 97.5453 28.3806 97.7355 28.6278C97.9257 28.8687 98.0208 29.1984 98.0208 29.6168C98.0208 29.9402 97.9352 30.2445 97.7641 30.5298C97.5929 30.8151 97.3393 31.0465 97.0033 31.224C96.6673 31.4015 96.271 31.4903 95.8145 31.4903Z" fill="black"/>
</svg>
