<svg width="69" height="23" viewBox="0 0 69 23" fill="none" xmlns="http://www.w3.org/2000/svg">
<path d="M29.7559 21.5735C32.0079 21.5735 33.9758 21.1373 35.6596 20.2649C37.3638 19.4129 38.6723 18.1753 39.5853 16.5523C40.5185 14.9496 40.9851 13.073 40.9851 10.9225C40.9851 8.77203 40.5185 6.90557 39.5853 5.32314C38.6723 3.74071 37.3638 2.52346 35.6596 1.67138C33.9758 0.839586 32.0079 0.423691 29.7559 0.423691H22.848V21.5735H29.7559ZM29.7559 3.25381C32.231 3.25381 34.1279 3.9233 35.4466 5.26228C36.7653 6.60126 37.4247 8.488 37.4247 10.9225C37.4247 13.3773 36.7653 15.2945 35.4466 16.674C34.1279 18.0536 32.231 18.7434 29.7559 18.7434H26.3172V3.25381H29.7559Z" fill="black"/>
<path d="M56.4948 21.6367C54.5269 21.6367 52.7111 21.1802 51.0476 20.2673C49.4043 19.3341 48.0957 18.0458 47.1219 16.4025C46.1684 14.7389 45.6916 12.8725 45.6916 10.8031C45.6916 8.73381 46.1684 6.87749 47.1219 5.2342C48.0957 3.59091 49.4043 2.31279 51.0476 1.39985C52.7111 0.466618 54.5269 3.42919e-06 56.4948 3.42919e-06C58.483 3.42919e-06 60.2987 0.466618 61.942 1.39985C63.6056 2.31279 64.9141 3.59091 65.8676 5.2342C66.8212 6.87749 67.2979 8.73381 67.2979 10.8031C67.2979 12.8725 66.8212 14.7389 65.8676 16.4025C64.9141 18.0458 63.6056 19.3341 61.942 20.2673C60.2987 21.1802 58.483 21.6367 56.4948 21.6367ZM56.4948 18.624C57.8946 18.624 59.1423 18.3095 60.2378 17.6806C61.3334 17.0314 62.1854 16.1185 62.7941 14.9418C63.423 13.7448 63.7374 12.3653 63.7374 10.8031C63.7374 9.241 63.423 7.87159 62.7941 6.69491C62.1854 5.51823 61.3334 4.61543 60.2378 3.98651C59.1423 3.3576 57.8946 3.04314 56.4948 3.04314C55.0949 3.04314 53.8472 3.3576 52.7517 3.98651C51.6562 4.61543 50.794 5.51823 50.165 6.69491C49.5564 7.87159 49.2521 9.241 49.2521 10.8031C49.2521 12.3653 49.5564 13.7448 50.165 14.9418C50.794 16.1185 51.6562 17.0314 52.7517 17.6806C53.8472 18.3095 55.0949 18.624 56.4948 18.624Z" fill="black"/>
<path d="M37.8608 11.3633L40.4267 10.3346C42.0988 9.66418 43.9545 9.60892 45.6636 10.1786L48.7224 11.1982" stroke="black" stroke-width="1.14118"/>
<path d="M24.9479 11.1982L0.222412 21.659M66.791 8.34526L37.3106 21.659" stroke="black" stroke-width="1.14118"/>
</svg>
